<svg width="200" height="26" viewBox="0 0 200 26" fill="none" xmlns="http://www.w3.org/2000/svg">
<g clip-path="url(#clip0_640_17818)">
<path fill-rule="evenodd" clip-rule="evenodd" d="M20.3395 2.02344C20.4672 2.0278 20.5825 2.0361 20.6835 2.04872C20.9453 2.08136 20.9055 2.31626 20.8465 2.6677C19.383 11.3943 18.7352 20.7961 23.8928 25.2912C23.947 25.3411 24.022 25.4457 23.9967 25.4845C23.9717 25.5233 23.8199 25.5024 23.7577 25.4985C21.2187 25.3408 10.9796 21.27 11.4143 3.8013C11.4212 3.52134 11.4586 3.39332 11.8731 3.27242C13.2591 2.86832 17.6405 2.08362 19.8536 2.02344H20.3395ZM3.97705 10.821C4.21868 10.6505 6.95834 9.30064 9.47703 8.40004C9.98137 8.23951 9.97814 8.76128 10.0022 8.89829C12.3555 22.3065 18.1072 23.9938 19.7248 25.3198C19.9423 25.4644 19.6637 25.5183 19.3878 25.5048C7.75831 25.5416 4.25655 14.8464 3.61278 11.3401C3.5534 11.0167 3.73542 10.9914 3.97705 10.821ZM0.256255 19.3264C0.852336 18.5972 2.58689 17.1339 3.30884 16.655C3.52775 16.51 3.68622 16.8449 3.8797 17.3013C4.65947 18.9733 5.82164 20.7326 6.96424 21.8905C9.24791 24.2048 11.7455 25.0883 11.8725 25.1917C12.0672 25.3506 12.0655 25.4766 11.6922 25.4904C3.79057 25.7839 0.561252 22.0456 0.0219091 19.8802C-0.0363513 19.6463 0.0149526 19.6215 0.256255 19.3264Z" fill="#230B59"/>
<path d="M42.5263 1.73828L39.056 15.6871L35.9145 1.73828H29.9236L35.8049 25.4629H41.1747L44.6815 11.5527L48.1518 25.4629H53.5216L59.4394 1.73828H53.5216L50.4166 15.6871L46.9829 1.73828H42.5263Z" fill="#230B59"/>
<path d="M68.0131 19.3972C67.6843 20.595 66.7711 21.136 65.6022 21.136C63.9583 21.136 62.9355 20.0155 62.7529 17.9289H73.3829V16.422C73.3829 11.2443 70.5336 7.68945 65.4926 7.68945C60.7438 7.68945 57.2369 11.3989 57.2369 16.7697C57.2369 22.1793 60.5611 25.85 65.6022 25.85C69.8761 25.85 72.7254 23.4157 73.3099 19.3972H68.0131ZM65.4926 12.4035C66.9172 12.4035 67.7574 13.4854 67.8305 14.915H62.8625C63.2278 13.2922 64.141 12.4035 65.4926 12.4035Z" fill="#230B59"/>
<path d="M89.6453 25.4632V14.7987C89.6453 10.2779 86.9787 7.65039 82.3029 7.65039C78.0655 7.65039 75.2527 10.3165 74.7779 13.6782H80.1842C80.4399 12.9054 81.0609 12.4031 82.1203 12.4031C83.5084 12.4031 84.1294 13.3691 84.1294 14.4896V15.6102C83.4719 15.1078 81.8646 14.6442 80.513 14.6442C76.9331 14.6442 74.1934 16.808 74.1934 20.1696C74.1934 23.8404 76.9331 25.7723 80.1842 25.7723C81.9376 25.7723 83.5814 25.1541 84.1294 24.5745V25.4632H89.6453ZM84.1294 20.5946C83.7641 21.2902 82.7778 21.7538 81.7184 21.7538C80.586 21.7538 79.4536 21.2515 79.4536 20.0537C79.4536 18.8945 80.586 18.3922 81.7184 18.3922C82.7778 18.3922 83.7641 18.8559 84.1294 19.59V20.5946Z" fill="#230B59"/>
<path d="M96.9906 0.347656H91.2555V25.4633H96.9906V12.9055V0.347656Z" fill="#230B59"/>
<path d="M100.64 19.4751C100.64 23.88 102.832 25.812 106.704 25.812C107.982 25.812 109.224 25.5801 109.882 25.271V20.132C109.37 20.3638 108.676 20.5184 108.055 20.5184C106.923 20.5184 106.302 19.9388 106.302 18.5864V12.7905H109.736V8.07645H106.302V3.28516H100.64V8.07645H98.229V12.7905H100.64V19.4751Z" fill="#230B59"/>
<path d="M111.036 25.4633H116.771V14.9534C117.063 13.7556 118.013 13.06 119.145 13.06C120.606 13.06 121.3 14.1033 121.3 15.533V25.4633H126.999V14.0647C126.999 10.2007 124.844 7.68916 121.191 7.68916C119.291 7.68916 117.684 8.50059 116.771 9.58249V0.347656H111.036V25.4633Z" fill="#230B59"/>
<path d="M139.422 0.463675C138.728 0.193197 137.851 0 136.756 0C132.737 0 130.363 2.62749 130.363 6.80055V8.07565H127.916V12.7897H130.363V25.4634H136.025V12.7897H139.203V8.07565H136.025V7.1483C136.025 5.75728 136.792 5.06177 138.071 5.06177C138.582 5.06177 139.02 5.17769 139.422 5.40953V0.463675Z" fill="#230B59"/>
<path d="M151.356 7.99856C151.101 7.84401 150.516 7.68945 149.786 7.68945C148.142 7.68945 146.863 8.46224 146.06 9.62142V8.07584H140.325V25.4636H146.06V15.2628C146.352 14.0263 147.411 13.2922 148.982 13.2922C149.895 13.2922 150.662 13.4467 151.356 13.8331V7.99856Z" fill="#230B59"/>
<path d="M169.017 16.7697C169.017 11.3989 165.314 7.68945 160.309 7.68945C155.341 7.68945 151.908 11.3989 151.908 16.7697C151.908 22.1406 155.647 25.85 160.615 25.85C165.619 25.85 169.017 22.1406 169.017 16.7697ZM163.086 16.7697C163.086 19.1654 162.099 20.8269 160.309 20.8269C158.556 20.8269 157.57 19.1654 157.57 16.7697C157.57 14.3741 158.556 12.674 160.309 12.674C162.099 12.674 163.086 14.3741 163.086 16.7697Z" fill="#230B59"/>
<path d="M170.254 25.4636H175.989V14.9537C176.282 13.7559 177.231 13.0603 178.364 13.0603C179.825 13.0603 180.519 14.1036 180.519 15.5333V25.4636H186.218V14.065C186.218 10.201 184.062 7.68945 180.409 7.68945C178.51 7.68945 176.903 8.50088 175.989 9.58278V8.07584H170.254V25.4636Z" fill="#230B59"/>
<path d="M189.266 19.4751C189.266 23.88 191.458 25.812 195.33 25.812C196.609 25.812 197.851 25.5801 198.508 25.271V20.132C197.997 20.3638 197.303 20.5184 196.682 20.5184C195.549 20.5184 194.928 19.9388 194.928 18.5864V12.7905H198.362V8.07645H194.928V3.28516H189.266V8.07645H186.855V12.7905H189.266V19.4751Z" fill="#230B59"/>
</g>
<defs>
<clipPath id="clip0_640_17818">
<rect width="200" height="26" fill="white"/>
</clipPath>
</defs>
</svg>
